Patient4_TMGait_0pt5_02_right_18_EMG.mot
version=1
nRows=40
nColumns=33
inDegrees=no
endheader
time	1LAddLong	2LGlutMax	3LGlutMed	4LIliopsoas	5LSemiMemb	6LBicFemLong	7LRecFem	8LVastMed	9LVastLat	10LGasMed	11LTibAnt	12lTibPost	13LPeroneusLong	14LSol	15LExtDigLong	16LFlexDigLong	17RAddLong	18RGlutMax	19RGlutMed	20RIliopsoas	21RSemiMemb	22RBicFemLong	23RRecFem	24RVastMed	25RVastLat	26RGasMed	27RTibAnt	28RTibPost	29RPeroneusLong	30RSol	31RExtDigLong	32RFlexDigLong
23.38	0.013428	0.003357	0.028992	0.00412	0.072937	-0.054626	0.02182	0.010071	-0.0177	-0.004578	0.004272	0.042419	0.044708	-0.86914	-0.054626	-0.085144	0.041351	-0.1651	0.13565	0.006256	0.11108	0.019531	0.23453	-0.025635	0.036469	-0.001221	-0.045319	-0.006561	-0.058746	-0.16129	0.002441	-0.006256
23.381	0.000916	0.032501	-0.03418	0.026093	0.064392	0.046997	0.026703	0.002899	-0.003204	0.068665	0.007477	-0.063477	0.13351	-0.26123	-0.05188	-0.031891	0.053558	-0.13275	0.22308	0.048218	0.10284	0.006714	0.18188	0.003357	0.016785	-0.00946	0.21698	0.006409	-0.10559	-0.14267	0.003815	-0.011292
23.382	-0.003204	0.00885	-0.048523	0.011597	0.025635	0.060883	0.045166	0.003967	-0.005341	0.17441	0.002136	0.10422	0.13947	0.26596	-0.059662	0.018158	0.061646	-0.10681	0.22476	0.096436	0.1062	0.014343	0.17364	0.049896	0.001068	-0.008545	0.6073	-0.006256	-0.10208	-0.12665	0.00412	-0.006104
23.383	0.005188	-0.016022	0.017395	0.006866	0.058594	0.048676	0.045319	-0.002136	-0.006104	0.084229	0.01297	0.024872	0.10315	0.24551	-0.038452	0.01358	0.050659	-0.15671	0.16693	0.085602	0.094604	0.024567	0.18601	0.083313	0.014648	-0.010071	0.61005	-0.00473	-0.056915	-0.093384	-0.001373	-0.007477
23.384	-0.004272	0.017242	0.11322	0.023041	0.030518	0.0737	0.079193	0.000153	-0.007172	-0.12161	0.007782	-0.071259	0.13855	-0.056152	-0.034332	-0.000763	0.034637	-0.19363	0.10574	0.01358	0.084991	0.015411	0.10986	0.07309	0.008545	-0.012207	0.22675	-0.003967	-0.050201	-0.068359	0.002899	-0.010834
23.385	-0.009613	0.00824	0.070343	0.003967	-0.027466	0.027008	0.069733	0.007935	-0.036926	-0.11551	0.000763	-0.07019	0.26764	-0.2066	-0.009155	-0.031586	0.018921	-0.2005	0.14114	-0.046844	0.068817	0.010071	0.053406	-0.017395	0.001526	-0.003052	0.11246	0.006561	-0.002899	-0.092468	0.00824	-0.00885
23.386	-0.010376	0.023499	0.073853	0.002289	0.010223	0.009918	0.09079	0.001221	-0.030365	-0.066833	0.002594	-0.052032	0.11581	-0.09201	0.014038	-0.017548	0.001831	-0.16449	0.15106	-0.078583	0.084534	0.012512	0.076752	0.032654	-0.016937	-0.001831	0.010376	-0.007172	0.028076	-0.020294	-0.000305	-0.007172
23.387	0.008087	0.00885	0.15869	-0.002899	-0.069122	0.035553	0.11093	0.006409	-0.007019	-0.036469	0.010071	-0.048981	-0.033875	0.064545	0.002136	-0.02121	0.1088	-0.1648	0.21439	-0.050201	0.061951	0.009308	0.1088	-0.029449	-0.005493	0.000763	-0.011902	-0.001984	0.014343	0.055695	0.008087	-0.011292
23.388	0.029602	0.037384	0.1358	-0.010376	-0.004578	0.11383	0.058289	0.00061	0.029602	-0.005341	0.013885	0.027618	-0.082245	0.19318	-0.009155	-0.027618	0.12283	-0.18402	0.19806	-0.016479	0.036774	-0.015869	0.22308	-0.028839	-0.008698	-0.00351	-0.085297	-0.002899	-0.029449	0.087738	0.002594	-0.011749
23.389	0.012817	0.074921	0.074615	-0.002747	0.061951	0.24582	0.053558	0.002899	0.008545	0.014191	0.010071	0.048218	-0.008545	0.17456	0.014191	-0.019073	0.0914	-0.15991	0.23224	-0.005035	0.0354	-0.008392	0.24689	-0.017548	-0.033569	-0.006409	-0.17288	-0.007477	-0.059662	0.065765	0.012512	-0.006409
23.39	0.002594	0.096588	0.05661	0.022278	0.065918	0.094147	0.02182	0.004578	0.007324	-0.001373	0.004578	-0.012665	-0.15243	0.13367	0.030823	-0.012054	0.018311	-0.12833	0.056152	-0.027008	0.032501	-0.005188	0.15778	-0.075226	-0.009308	-0.016479	-0.16525	-0.00412	-0.09491	0.021057	0.00412	-0.001526
23.391	-0.018463	0.15366	0.13901	0.038605	-0.019226	0.056152	0.016937	0.005951	0.11765	0.016479	-0.011444	-0.019531	0.19302	0.1329	0.071411	-0.017242	-0.055542	-0.094147	0.10651	-0.095367	0.016632	-0.015411	0.10407	-0.12085	-0.019379	-0.007324	-0.34561	-0.002441	-0.1033	-0.026855	0.000153	0.008545
23.392	-0.009613	0.13336	0.11902	0.020752	-0.092316	0.12863	0.007324	-0.005341	0.13168	0.017395	0.000153	-0.019379	0.78095	0.040588	0.092316	-0.006714	-0.097961	-0.07019	0.36789	0.004578	0.023499	-0.013123	0.06897	-0.13062	-0.018921	0.00061	-0.019073	-0.003662	0.001984	-0.12329	-0.006104	0.005188
23.393	0.016937	0.087128	-0.005493	0.011292	-0.14313	0.19196	0.02594	-0.007935	0.071716	0.011444	-0.011902	0.006409	1.0828	0.045929	0.032806	-0.007477	-0.07309	-0.096741	0.23956	-0.003967	0.033264	-0.012512	0.019226	-0.15717	-0.019226	0.001678	0.27496	-0.006256	0.019836	-0.08667	0.007935	0.001068
23.394	0.012512	0.067444	-0.028839	0.003967	-0.028076	0.12711	0.027161	0.00351	-0.084076	0.038452	-0.012817	0.010834	0.29846	0.14893	0.031433	-0.000916	-0.033264	-0.13825	0.15503	-0.086212	0.009918	-0.005188	0.00824	-0.1207	-0.018005	0.004883	0.61798	-0.004578	0.13153	-0.055847	0.001831	-0.000153
23.395	0.016022	0.10193	0.011902	-0.001831	0.055389	0.085602	0.019531	-0.005798	-0.032501	-0.077057	-0.0177	0.014801	-0.22354	0.12131	-0.024414	0.000916	0.011139	-0.1297	0.16632	-0.097046	0.049438	-0.004425	-0.020905	-0.13809	-0.030365	0.005646	0.54459	-0.000153	0.27023	-0.019226	0.001678	0.003204
23.396	0.012665	0.053558	0.012054	0.006561	0.018158	0.10422	0.03067	-0.007172	0.009613	-0.06958	0.002899	0.018463	-0.50156	0.068512	-0.061798	-0.006714	0.036774	-0.16647	0.17014	-0.010834	0.042114	0.016632	-0.06485	-0.13855	-0.046844	-0.006409	-0.12482	-0.002289	0.24536	0.046387	0.002594	0.003967
23.397	0.00412	0.016174	0.000763	-0.006866	0.008392	0.027618	0.02594	-0.006104	0.007172	-0.035553	0.019836	0.00412	-0.2446	0.17761	0.12726	0.002747	0.004272	-0.12299	0.33112	0.065308	0.029297	0.014343	0.056458	-0.17044	-0.046539	-0.011139	-0.32852	-0.006714	-0.044403	0.067596	0.001068	-0.000763
23.398	0.005951	-0.030365	-0.11231	-0.004883	0.036163	-0.088959	0.035553	-0.006104	0.020294	-0.006104	0.015411	0.013275	-0.18677	0.16754	0.06958	-0.004425	-0.008087	-0.12161	0.47836	0.16922	0.021515	0.016937	0.19516	-0.096436	-0.046539	-0.005035	-0.28259	0.000458	-0.47623	0.086975	0.006104	-0.00946
23.399	-0.005646	-0.016327	-0.061035	-0.00412	0.043335	-0.29587	0.027008	-0.002136	0.02594	0.002441	0.014648	0.017548	-0.18372	0.046692	-0.056458	0.003204	-0.017548	-0.09613	0.44571	0.26184	0.039978	0.012207	0.24674	-0.047607	-0.037842	-0.002289	-0.14145	-0.002289	-0.10895	0.088806	-0.003052	-0.011139
23.4	-0.011749	0.024414	-0.036621	0.014191	0	-0.45227	0.005341	-0.003204	0.008087	-0.064392	0.007019	0.015869	-0.31784	0.04837	-0.059052	0.002289	-0.031586	-0.076904	0.38803	0.29892	0.054474	0.031738	0.21713	-0.077057	-0.028229	-0.002594	-0.072174	-0.000916	0.053406	0.11414	-0.001221	-0.00946
23.401	-0.02121	-0.00412	-0.013428	-0.001221	-0.05188	-0.45959	-0.003357	0	-0.005035	-0.020142	-0.014496	0.01236	0.09552	0.069733	-0.010986	0.003204	-0.037231	-0.091705	0.27618	0.23819	0.05249	0.040588	0.13901	-0.13702	-0.026398	-0.006104	0.28503	-0.00473	-0.079651	0.1149	-0.003967	-0.010986
23.402	0.002899	-0.04425	-0.027466	0.004578	-0.05661	-0.24628	0.039978	-0.002289	-0.050201	0.017548	-0.027771	0.017242	0.19836	0.052643	0.010681	0.006409	-0.032349	-0.11368	0.088348	0.085754	0.046692	0.044403	0.11429	-0.12589	-0.037079	-0.007935	0.69626	-0.00412	-0.2092	0.06485	0.010834	-0.021667
23.403	-0.005035	-0.063934	0.009308	-0.011749	-0.014954	0.035248	0.039368	0	-0.1062	-0.032959	-0.024109	0.003662	0.4985	-0.1181	-0.019379	0.001068	-0.011902	-0.059814	0.005798	-0.14496	0.063477	0.029602	0.15289	-0.16373	-0.025482	-0.009003	0.87738	-0.002441	-0.09613	-0.015106	0.014648	-0.009766
23.404	0.003052	-0.09201	-0.04425	-0.016632	0.047455	0.17105	-0.001984	0	-0.098267	-0.050812	-0.013428	0.023956	-0.15381	-0.233	-0.043488	0.000763	-0.015106	-0.068054	0.022736	-0.19974	0.041962	0.022125	0.096893	-0.16815	-0.020599	0.004578	0.77164	-0.002289	0.1442	-0.096588	-0.001984	-0.009613
23.405	0.006561	-0.093994	-0.080261	-0.018311	-0.059967	0.22995	-0.036316	0.003967	-0.068665	-0.008392	0.007172	0.015106	-0.41367	-0.24384	-0.038452	-0.009918	-0.02243	-0.008545	0.076599	-0.16266	0.039063	0.025024	0.084991	-0.10666	-0.024872	0.010986	-0.024109	-0.001831	0.30243	-0.17273	-0.001984	-0.001373
23.406	0.001373	-0.10315	-0.13809	0.010071	-0.085297	0.25162	-0.017853	0.007324	-0.008392	0.083771	0.04425	0.015869	-0.59418	-0.2153	0.01297	-0.01709	-0.000763	-0.045471	0.1976	-0.09201	0.028076	0.027466	0.1297	-0.15732	-0.016174	0.001068	-1.0199	-0.001526	0.15457	-0.08728	-0.002289	-0.013733
23.407	0.002747	-0.121	-0.18433	0.02594	-0.042114	0.29877	-0.007324	0.005341	0.061188	-0.045166	0.037537	0.029602	-0.18463	-0.12192	0.016785	-0.097809	0.050507	-0.07431	0.15778	0.04776	0.032043	0.004425	0.14725	-0.26077	-0.032959	-0.014343	-0.5925	-0.002441	-0.1091	-0.004578	-0.00412	-0.010071
23.408	0.015106	-0.10178	-0.12619	0.018311	0.051575	0.31158	0.024719	0.000763	0.18097	-0.18936	0.00412	0.019379	0.037842	-0.011292	-0.022583	0.060272	0.063629	-0.01297	0.013123	0.16373	0.026855	0.01297	0.089417	-0.17777	-0.031738	-0.012665	-0.242	-0.003204	-0.092773	-0.036774	0.005798	-0.006714
23.409	0.036469	-0.064697	-0.031738	0.00824	0.15717	0.063934	0.08255	-0.003967	0.168	-0.17883	-0.021057	0.061188	-0.036469	0.035095	-0.020447	-0.066986	0.036774	0.022125	0.1236	-0.002289	0.027161	0.000916	0.16388	-0.1561	-0.03418	0.000305	-0.28778	-0.009003	0.028229	-0.033417	-0.003662	-0.002289
23.41	0.017395	-0.11917	-0.049438	-0.005798	0.07431	-0.12482	0.071259	-0.002441	0.096283	-0.044861	-0.004425	0.20248	0.041351	-0.097809	0.001984	-0.12405	0.013275	0.032043	0.1471	-0.12985	0.021515	0.017242	0.27985	-0.052795	-0.011749	-0.000305	-0.30945	-0.005798	0.035248	0.021362	-0.003052	0.003967
23.411	0.001526	-0.11932	0.014038	0.013428	-0.02655	-0.16678	0.046997	-0.002747	0.056152	0.26291	-0.014954	-0.16449	0.12558	-0.27527	0.037231	0.29678	-0.024567	0.007324	-0.1355	-0.012054	0.03418	-0.005798	0.30456	0.027771	-0.012817	-0.004578	-0.34195	-0.002899	0.022736	0.01297	0.00473	0.003357
23.412	0.015259	-0.056	-0.002747	0.033569	-0.080566	-0.32272	0.015411	-0.00351	0.068207	-0.003357	-0.015259	-0.055389	-0.003662	-0.2002	0.078888	0.10452	-0.030823	-0.035858	-0.019379	0.18402	0.035248	-0.011597	0.1976	0.03006	-0.031891	-0.001831	-0.29358	-0.002747	-0.019531	0.050201	0.001678	0.000916
23.413	0.003357	-0.05661	0.037537	0.012512	-0.096741	-0.14175	-0.002289	0.003052	0.081482	-0.23041	-0.027313	0.043182	0.023041	0.063019	0.068207	-0.17166	-0.038147	-0.028534	0.11169	0.29511	0.035858	0.009003	0.088348	0.041351	-0.037079	-0.007172	-0.14191	-0.005951	-0.09552	0.10925	0.008392	0.000305
23.414	0.006104	-0.056305	0.06012	0.010376	-0.056	0.059204	-0.001678	0.001526	0.079498	-0.18982	-0.031281	0.271	0.30441	0.10941	0.02594	-0.045319	-0.002747	-0.078888	0.006714	0.22766	0.040131	0.010071	-0.005341	0.044556	-0.037537	-0.00473	-0.006714	-0.00412	-0.098572	0.031738	0.006256	-0.003357
23.415	0.000305	-0.050354	0.094452	0.005951	-0.023804	0.03006	-0.027313	0.001526	0.086975	0.22263	-0.017548	0.13214	0.2536	0.039978	0.006866	0.005188	0.003815	-0.076904	-0.031281	0.096283	0.034332	0.007477	-0.030518	0.025024	-0.040741	-0.007629	0.14603	-0.005798	-0.10773	0.029297	0.003357	-0.000458
23.416	0.001984	-0.007629	0.030823	-0.005798	0.007782	0.055695	-0.001678	0.00473	0.054626	0.51437	0.002747	0.43823	-0.19516	-0.011597	-0.042419	-0.023651	0.00412	-0.09613	0.10773	0.025177	0.040436	0.015411	-0.048828	-0.010986	-0.007935	-0.007477	0.53497	-0.002441	-0.10468	0.038757	-0.002136	-0.002594
23.417	-0.001526	0.037231	0.054321	-0.000916	0.009308	-0.042572	0.001373	-0.002289	-0.001526	0.57465	0.024872	-0.56747	-0.16327	-0.076752	-0.099945	-0.053406	-0.005951	-0.048065	0.20187	-0.032806	0.039368	0.038452	0.048981	-0.006256	0.001831	-0.007477	0.61203	-0.00412	-0.009155	0.016022	-0.002441	-0.002441
23.418	-0.00473	0.065155	0.12009	-0.004883	0.014496	-0.18524	0.012054	0.000305	-0.030975	0.18631	0.011139	0.010986	0.46478	-0.009155	-0.058441	-0.041199	-0.011597	-0.03418	0.19409	0.019684	0.043945	0.024719	0.064697	0.018158	-0.014648	-0.005188	0.35416	-0.008392	0.013123	-0.002289	0.006714	-0.011139
23.419	0.016632	0.020447	0.037689	0.008698	0.078888	-0.27618	0.048676	-0.006409	-0.069275	-0.30746	0.005341	0.10574	0.54092	0.046082	0.062256	-0.01709	0.011139	-0.012665	0.20309	-0.030212	0.0354	0.033417	0.048981	0.066986	-0.019073	-0.006409	0.081177	-0.001678	0.010681	-0.023193	-0.001678	-0.020599
